<?xml version="1.0" standalone="no"?>
<!DOCTYPE svg PUBLIC "-//W3C//DTD SVG 1.1//EN" "http://www.w3.org/Graphics/SVG/1.1/DTD/svg11.dtd">
<svg class="icon" width="200" height="200.px" viewBox="-500 -500 2048 2048" version="1.1" xmlns="http://www.w3.org/2000/svg">
<circle cx="510" cy="500" r="800" fill="LightSkyBlue"></circle>
<path fill="#ffffff" d="M822.28224 216.2944H80.68608c-41.34912 0-73.70752 24.32-73.70752 55.35232v580.79744c0 31.80544 33.06496 57.68704 73.70752 57.68704h747.3664c39.73632 0 70.88128-25.344 70.88128-57.68704V271.64672c-0.00512-30.5152-34.37056-55.35232-76.65152-55.35232z m-522.752 128.09728c40.64256 0 73.67168 33.12128 73.67168 73.84576a73.09312 73.09312 0 0 1-21.4784 52.1472 73.14944 73.14944 0 0 1-52.18816 21.64224c-40.64256 0-73.70752-33.10592-73.70752-73.78944-0.00512-40.7296 33.05984-73.84576 73.7024-73.84576z m457.6512 485.53472H151.13728c-22.6304 0-28.1088-13.52704-12.544-29.88544l130.34496-137.03168c15.70304-16.50176 43.5712-19.2 62.42304-5.89312l96.05632 67.79904c18.76992 13.24544 45.79328 9.66656 60.3392-7.96672l222.1056-269.2608c14.55104-17.64352 29.09184-13.61408 32.40448 8.5248l49.8432 333.24032c3.33312 22.36416-12.34944 40.4736-34.92864 40.4736zM944.43008 111.49312H202.83392c-41.344 0-73.70752 24.31488-73.70752 55.35232v15.32928h730.14272c42.2912 0 76.65664 24.84224 76.65664 55.35232v567.80288h14.27456c39.73632 0 70.88128-25.344 70.88128-57.69216V166.84544c0-30.5152-34.36032-55.35232-76.65152-55.35232z" />
</svg>