<?xml version="1.0" standalone="no"?><!DOCTYPE svg PUBLIC "-//W3C//DTD SVG 1.1//EN" "http://www.w3.org/Graphics/SVG/1.1/DTD/svg11.dtd"><svg class="icon" width="200px" height="187.89px" viewBox="0 0 1090 1024" version="1.1" xmlns="http://www.w3.org/2000/svg"><path fill="#409EFF" d="M397.357 793.628l-38.85-38.918 538.648-538.715c11.11-11.11 16.63-38.85 0-55.549l-99.987-99.918c-11.11-11.11-38.85-16.699-55.48 0L202.973 604.764l-38.85-38.85L702.703 27.2c38.849-38.85 99.986-33.33 133.315 0l99.919 99.987c38.85 38.85 33.397 99.918 0 133.247l-538.58 533.195zM125.205 871.328c-5.52 0-16.63 0-22.22-5.521-5.52-5.59-11.109-16.699-5.52-27.808l61.069-261.043c0-11.041 11.11-16.63 16.63-22.151 11.11-5.589 22.22 0 27.809 5.52l199.905 188.796c5.589 5.59 11.11 16.699 5.589 27.809 0 11.11-11.11 16.63-16.699 22.219l-261.042 72.247h-5.521z m77.7-238.824l-38.85 166.645 166.644-44.439-127.726-122.206zM611.37 141.362l39.259-39.258 212.037 212.174-39.326 39.19-211.97-212.106z m446.908 868.802H36.328c-16.63 0-27.74-11.11-27.74-27.74 0-16.699 11.11-27.808 27.74-27.808H1058.21c16.63 0 27.74 11.11 27.74 27.808 0 16.63-11.11 27.74-27.74 27.74z" /></svg>