<?xml version="1.0" standalone="no"?>
<!DOCTYPE svg PUBLIC "-//W3C//DTD SVG 1.1//EN" "http://www.w3.org/Graphics/SVG/1.1/DTD/svg11.dtd">
<svg class="icon" width="200" height="200" viewBox="-500 -500 2048 2048" version="1.1" xmlns="http://www.w3.org/2000/svg">
<circle cx="520" cy="530" r="800" fill="LightSkyBlue"></circle>
<path fill="#ffffff" d="M513 699.909c-79.154 0-143.321-64.169-143.321-143.322S433.846 413.264 513 413.264s143.321 64.169 143.321 143.322S592.154 699.909 513 699.909z m0 80.617c123.615 0 223.94-100.326 223.94-223.94S636.615 332.647 513 332.647s-223.94 100.326-223.94 223.94S389.385 780.526 513 780.526zM378.636 108.707h268.728l81.962 89.577h141.978c49.267 0 89.576 40.309 89.576 89.574v537.457c0 49.265-40.309 89.574-89.576 89.574H154.697c-49.267 0-89.576-40.309-89.576-89.574V287.858c0-49.265 40.309-89.574 89.576-89.574h141.978l81.961-89.577z"  />
</svg>