<?xml version="1.0" standalone="no"?>
<!DOCTYPE svg PUBLIC "-//W3C//DTD SVG 1.1//EN" "http://www.w3.org/Graphics/SVG/1.1/DTD/svg11.dtd">
<svg class="icon" width="200" height="200" viewBox="-500 -500 2048 2048" version="1.1" xmlns="http://www.w3.org/2000/svg">
<circle cx="500" cy="530" r="800" fill="LightSkyBlue"></circle>
<path fill="#ffffff" d="M1335.2 620.8v-0.1l0.1-0.1v0.1l-0.1 0.1z m0 0M880.8 312.4L693 106c-9.8-10.2-21.4-18.6-34.2-24.7v244.8l231.9 0.1c-3.1-4.9-6.3-9.8-9.9-13.8M658.9 585.9H365.6c-9.8-0.1-19.1-4-26-11-6.9-7-10.7-16.4-10.6-26.1 0-20.5 16.4-37.1 36.6-37.1h293.2c20.3 0 36.7 16.6 36.7 37.1 0.1 9.8-3.8 19.2-10.7 26.2-6.8 6.9-16.2 10.8-25.9 10.9m0 185.5H365.6c-9.8-0.1-19.1-4-26-11-6.9-7-10.7-16.4-10.6-26.1 0-20.5 16.4-37.1 36.6-37.1h293.2c20.3 0 36.7 16.6 36.7 37.1 0.1 9.8-3.8 19.2-10.7 26.2-6.8 6.9-16.2 10.8-25.9 10.9m256.3-371H659c-40.8-0.3-73.7-33.6-73.4-74.4V66.5H182.1c-40.7 0.4-73.4 33.7-73.1 74.4v741.7c-0.3 40.6 32.4 73.8 73 74.2h660.4c40.7-0.4 73.4-33.7 73-74.4V402.3c0-0.7-0.1-1.3-0.2-1.9" />
</svg>