<?xml version="1.0" standalone="no"?>
<!DOCTYPE svg PUBLIC "-//W3C//DTD SVG 1.1//EN" "http://www.w3.org/Graphics/SVG/1.1/DTD/svg11.dtd">
<svg t="1594982790546" class="icon" viewBox="0 0 1024 1024" version="1.1" xmlns="http://www.w3.org/2000/svg" p-id="10546" xmlns:xlink="http://www.w3.org/1999/xlink" width="200" height="200">
<defs>
<style type="text/css">
</style>
</defs>
<path d="M512 68.191C266.795 68.191 68.191 266.795 68.191 512S266.795 955.809 512 955.809 955.809 757.205 955.809 512 757.204 68.191 512 68.191z m0 133.142c73.45 0 133.142 59.693 133.142 133.143 0 73.672-59.692 133.142-133.142 133.142s-133.142-59.47-133.142-133.142c0-73.45 59.691-133.143 133.142-133.143z m0 630.209c-111.174 0-208.812-56.808-266.285-142.907C246.825 600.538 423.46 551.942 512 551.942s264.953 48.596 266.285 136.693C720.812 774.735 623.174 831.542 512 831.542z" p-id="10547" fill="WhiteSmoke"></path></svg>