<?xml version="1.0" standalone="no"?><!DOCTYPE svg PUBLIC "-//W3C//DTD SVG 1.1//EN" "http://www.w3.org/Graphics/SVG/1.1/DTD/svg11.dtd"><svg class="icon" width="200px" height="186.52px" viewBox="0 0 1098 1024" version="1.1" xmlns="http://www.w3.org/2000/svg"><path fill="#8a8a8a" d="M866.825326 383.643593a306.603602 306.603602 0 0 0 6.225454-56.807267 326.836326 326.836326 0 0 0-653.672653 0 297.265421 297.265421 0 0 0 6.225454 62.254539A325.279963 325.279963 0 1 0 550.105362 933.818076a323.7236 323.7236 0 0 0 217.112703 85.59999 325.279963 325.279963 0 0 0 99.607261-634.996292z m-99.607261 560.290845a242.014518 242.014518 0 0 1-177.425435-77.818173 38.130905 38.130905 0 0 0-5.447272-10.116362 251.352699 251.352699 0 0 1-59.141811-161.8618A233.454519 233.454519 0 0 1 535.319909 622.545384a38.909086 38.909086 0 0 0-77.818173-23.345452 311.272692 311.272692 0 0 0-15.563634 94.938171 321.389054 321.389054 0 0 0 55.250902 180.538161 242.014518 242.014518 0 0 1-168.865435 69.258174 249.018154 249.018154 0 0 1-49.025449-494.145398 249.018154 249.018154 0 0 1 233.454519 82.487263A41.243632 41.243632 0 0 0 550.105362 544.727211a36.574541 36.574541 0 0 0 25.679997-10.116363 37.352723 37.352723 0 0 0 5.447272-53.694539 321.389054 321.389054 0 0 0-279.367241-112.058169 262.247243 262.247243 0 0 1 0-42.021814 249.796335 249.796335 0 0 1 498.814489 0 242.014518 242.014518 0 0 1-8.559999 63.032721 31.905451 31.905451 0 0 0-4.66909 8.559999A242.014518 242.014518 0 0 1 596.796266 571.18539a40.46545 40.46545 0 0 0-31.127269 45.912722 41.243632 41.243632 0 0 0 38.909086 31.127269 9.338181 9.338181 0 0 0 7.781817 0 319.832691 319.832691 0 0 0 233.454519-186.763615 249.018154 249.018154 0 0 1-77.818173 485.585399z" /></svg>