<?xml version="1.0" standalone="no"?><!DOCTYPE svg PUBLIC "-//W3C//DTD SVG 1.1//EN" "http://www.w3.org/Graphics/SVG/1.1/DTD/svg11.dtd"><svg t="1595057308933" class="icon" viewBox="0 0 1024 1024" version="1.1" xmlns="http://www.w3.org/2000/svg" p-id="18194" xmlns:xlink="http://www.w3.org/1999/xlink" width="200" height="200"><defs><style type="text/css"></style></defs><path d="M166.4 166.4v140.8c0 21.208-17.192 38.4-38.4 38.4s-38.4-17.192-38.4-38.4V128c0-21.208 17.192-38.4 38.4-38.4h179.2c21.208 0 38.4 17.192 38.4 38.4s-17.192 38.4-38.4 38.4H166.4z m0 691.2h140.8c21.208 0 38.4 17.192 38.4 38.4s-17.192 38.4-38.4 38.4H128c-21.208 0-38.4-17.192-38.4-38.4V716.8c0-21.208 17.192-38.4 38.4-38.4s38.4 17.192 38.4 38.4v140.8z m691.2-691.2H716.8c-21.208 0-38.4-17.192-38.4-38.4s17.192-38.4 38.4-38.4H896c21.208 0 38.4 17.192 38.4 38.4v179.2c0 21.208-17.192 38.4-38.4 38.4s-38.4-17.192-38.4-38.4V166.4z m0 691.2V716.8c0-21.208 17.192-38.4 38.4-38.4s38.4 17.192 38.4 38.4V896c0 21.208-17.192 38.4-38.4 38.4H716.8c-21.208 0-38.4-17.192-38.4-38.4s17.192-38.4 38.4-38.4h140.8zM269.462 384c24.7 0 45.907 5.01 63.62 15.031 17.712 10.021 31.118 24.267 40.218 42.738 9.1 18.47 13.65 40.164 13.65 65.081 0 18.417-2.492 35.154-7.475 50.212-4.983 15.059-12.458 28.113-22.425 39.163-9.967 11.05-22.208 19.5-36.725 25.35-14.517 5.85-31.146 8.775-49.887 8.775-18.634 0-35.317-3.006-50.05-9.019-14.734-6.012-27.03-14.49-36.888-25.431-9.858-10.942-17.306-24.104-22.344-39.487-5.037-15.384-7.556-32.013-7.556-49.888 0-18.308 2.627-35.1 7.881-50.375 5.254-15.275 12.865-28.275 22.832-39 9.966-10.725 22.1-18.931 36.4-24.619 14.3-5.687 30.55-8.531 48.75-8.531z m68.576 122.525c0-17.442-2.817-32.554-8.45-45.337-5.634-12.784-13.678-22.453-24.132-29.007-10.454-6.554-22.452-9.831-35.994-9.831-9.641 0-18.552 1.815-26.73 5.444-8.18 3.629-15.222 8.91-21.126 15.844-5.904 6.933-10.562 15.789-13.975 26.568-3.412 10.78-5.119 22.886-5.119 36.319 0 13.542 1.707 25.783 5.12 36.725 3.412 10.942 8.233 20.015 14.462 27.219 6.229 7.204 13.379 12.593 21.45 16.168 8.07 3.576 16.927 5.363 26.569 5.363 12.35 0 23.697-3.087 34.043-9.263 10.346-6.175 18.58-15.708 24.7-28.6 6.121-12.891 9.182-28.762 9.182-47.612z m283.165 44.525c0 7.583-1.868 15.79-5.606 24.619-3.737 8.829-9.614 17.496-17.631 26-8.017 8.504-18.254 15.41-30.712 20.719-12.459 5.308-26.975 7.962-43.55 7.962-12.567 0-23.996-1.192-34.288-3.575-10.292-2.383-19.635-6.094-28.031-11.131-8.396-5.038-16.115-11.673-23.156-19.907-6.284-7.475-11.646-15.843-16.088-25.106-4.442-9.262-7.773-19.148-9.994-29.656-2.22-10.508-3.331-21.667-3.331-33.475 0-19.175 2.79-36.346 8.369-51.512 5.579-15.167 13.568-28.14 23.969-38.92 10.4-10.778 22.587-18.985 36.562-24.618 13.975-5.633 28.87-8.45 44.688-8.45 19.283 0 36.454 3.846 51.512 11.538 15.058 7.691 26.596 17.197 34.612 28.518 8.017 11.321 12.025 22.019 12.025 32.094 0 5.525-1.95 10.4-5.85 14.625-3.9 4.225-8.612 6.338-14.137 6.338-6.175 0-10.806-1.463-13.894-4.388-3.087-2.925-6.527-7.962-10.318-15.113-6.284-11.808-13.678-20.637-22.182-26.487-8.504-5.85-18.985-8.775-31.443-8.775-19.826 0-35.615 7.53-47.37 22.587-11.753 15.059-17.63 36.455-17.63 64.188 0 18.525 2.6 33.935 7.8 46.231 5.2 12.296 12.566 21.477 22.1 27.544 9.533 6.067 20.691 9.1 33.475 9.1 13.866 0 25.593-3.44 35.18-10.319 9.588-6.879 16.82-16.98 21.695-30.306 2.058-6.283 4.604-11.402 7.637-15.356 3.033-3.954 7.908-5.932 14.625-5.932 5.742 0 10.67 2.005 14.788 6.013 4.116 4.008 6.174 8.992 6.174 14.95z m98.241-26.65h-16.9v76.538c0 10.075-2.22 17.495-6.662 22.262-4.442 4.767-10.237 7.15-17.387 7.15-7.692 0-13.65-2.492-17.875-7.475-4.226-4.983-6.338-12.296-6.338-21.938v-183.3c0-10.4 2.33-17.929 6.987-22.587 4.659-4.658 12.188-6.988 22.588-6.988h78.488c10.833 0 20.095 0.46 27.787 1.382 7.692 0.92 14.625 2.79 20.8 5.606 7.475 3.142 14.083 7.637 19.825 13.488 5.742 5.85 10.102 12.647 13.081 20.393 2.98 7.746 4.469 15.952 4.469 24.619 0 17.767-5.01 31.958-15.031 42.575-10.021 10.617-25.215 18.146-45.582 22.587 8.559 4.55 16.738 11.267 24.538 20.15a204.348 204.348 0 0 1 20.881 28.357c6.121 10.02 10.888 19.066 14.3 27.137 3.413 8.071 5.119 13.623 5.119 16.657 0 3.141-1.002 6.256-3.006 9.343-2.004 3.088-4.74 5.525-8.207 7.313-3.466 1.787-7.474 2.681-12.024 2.681-5.417 0-9.967-1.273-13.65-3.819-3.684-2.546-6.853-5.768-9.507-9.668-2.654-3.9-6.256-9.642-10.806-17.226l-19.337-32.174c-6.934-11.809-13.136-20.8-18.607-26.976-5.47-6.175-11.023-10.4-16.656-12.674-5.633-2.276-12.73-3.413-21.288-3.413z m27.625-100.1h-44.524v65.488h43.225c11.591 0 21.341-1.003 29.25-3.007 7.908-2.004 13.947-5.416 18.118-10.237 4.171-4.821 6.256-11.456 6.256-19.906 0-6.609-1.679-12.432-5.037-17.47-3.358-5.037-8.017-8.801-13.975-11.293-5.633-2.383-16.737-3.575-33.313-3.575z" fill="#409EFF" p-id="18195"></path></svg>