<?xml version="1.0" standalone="no"?>
<!DOCTYPE svg PUBLIC "-//W3C//DTD SVG 1.1//EN" "http://www.w3.org/Graphics/SVG/1.1/DTD/svg11.dtd">
<svg class="icon" width="200" height="200.px" viewBox="-500 -500 2048 2048" version="1.1" xmlns="http://www.w3.org/2000/svg">
<circle cx="510" cy="490" r="800" fill="LightSkyBlue"></circle>
<path fill="#ffffff" d="M388.16 902.4H81.28c-9.6 0-17.28-16.96-17.28-38.4V136c0-20.8 7.68-38.08 17.28-38.08h306.88c9.6 0 17.28 17.28 17.28 38.08V864c-1.92 21.44-7.68 38.4-17.28 38.4zM963.84 113.28v316.48c0 9.6-9.6 16.96-22.72 16.96H521.6c-11.52 0-22.72-7.68-22.72-16.96V113.28c0-9.6 9.6-17.28 22.72-17.28h419.52c11.52 0 22.72 7.68 22.72 17.28zM963.84 568.96v316.48c0 9.6-9.6 16.96-22.72 16.96H521.6c-11.52 0-22.72-7.68-22.72-16.96v-316.48c0-9.6 9.6-17.28 22.72-17.28h419.52c11.52 1.92 22.72 7.68 22.72 17.28z" />
</svg>