<?xml version="1.0" standalone="no"?><!DOCTYPE svg PUBLIC "-//W3C//DTD SVG 1.1//EN" "http://www.w3.org/Graphics/SVG/1.1/DTD/svg11.dtd"><svg class="icon" width="200px" height="200.00px" viewBox="0 0 1024 1024" version="1.1" xmlns="http://www.w3.org/2000/svg"><path fill="#ffffff" d="M496.64 58.410667c238.677333-9.6 441.301333 164.992 465.493333 401.578666-89.429333-29.994667-189.952-30.506667-280.32 47.530667a244.992 244.992 0 0 0-68.437333 97.28c-51.114667 132.778667 20.437333 237.056 98.432 299.776a52.864 52.864 0 0 1-17.066667 12.544 443.776 443.776 0 0 1-177.408 36.864c-122.197333 0-236.373333-48.298667-321.493333-136.021333a444.586667 444.586667 0 0 1-126.293333-325.76c6.997333-232.789333 194.56-423.253333 427.093333-433.792z m232.618667 504.021333c64.768-55.978667 140.245333-55.509333 210.048-32.426667l-188.16 312.704c-52.053333-43.136-107.349333-115.2-70.144-211.84a172.586667 172.586667 0 0 1 48.256-68.437333z m-189.269334-231.552a17.066667 17.066667 0 0 0-23.466666 5.76L361.813333 591.530667a17.066667 17.066667 0 0 0 5.717334 23.424l54.741333 33.237333a17.066667 17.066667 0 0 0 23.466667-5.76l154.666666-254.890667a17.066667 17.066667 0 0 0-5.717333-23.466666zM370.176 282.026667a17.066667 17.066667 0 0 0-23.466667 5.717333l-102.4 168.746667a17.066667 17.066667 0 0 0 5.76 23.381333l54.741334 33.237333a17.066667 17.066667 0 0 0 23.424-5.717333l102.4-168.704a17.109333 17.109333 0 0 0-5.717334-23.466667z" /></svg>