<?xml version="1.0" standalone="no"?><!DOCTYPE svg PUBLIC "-//W3C//DTD SVG 1.1//EN" "http://www.w3.org/Graphics/SVG/1.1/DTD/svg11.dtd"><svg t="1595057086201" class="icon" viewBox="0 0 1024 1024" version="1.1" xmlns="http://www.w3.org/2000/svg" p-id="1285" xmlns:xlink="http://www.w3.org/1999/xlink" width="200" height="200"><defs><style type="text/css"></style></defs><path d="M878.25408 1023.13472H183.58784c-41.94816 0-76.06784-34.11968-76.06784-76.05248V76.0832C107.52 34.12992 141.63968 0 183.58784 0h541.70112l229.03296 239.42144v707.66592c0.00512 41.9328-34.11968 76.04736-76.06784 76.04736zM183.58784 50.19648a25.9072 25.9072 0 0 0-25.86624 25.88672v871.00416a25.89184 25.89184 0 0 0 25.86624 25.85088h694.66624a25.89184 25.89184 0 0 0 25.86624-25.85088V259.56352L703.85152 50.19648H183.58784z m745.63584 224.39424h-163.6864c-41.94816 0-76.06784-34.11968-76.06784-76.05248V25.09824a25.10848 25.10848 0 0 1 15.74912-23.296 25.14432 25.14432 0 0 1 27.48416 5.9392l214.656 224.39424a25.09312 25.09312 0 0 1 4.93568 27.2128 25.07264 25.07264 0 0 1-23.07072 15.24224z m-189.55264-186.94656v110.8992a25.8816 25.8816 0 0 0 25.86624 25.85088h104.93952l-130.80576-136.75008z" p-id="1286" fill="#8a8a8a"></path><path d="M451.72224 793.20064h41.7024V439.19872H389.62176v70.79936H328.12032V390.00064h405.60128V510.0032h-61.50144V439.19872h-119.99744v354.00192h46.80192V844.8h-147.3024v-51.59936z" p-id="1287" fill="#8a8a8a"></path></svg>