<?xml version="1.0" standalone="no"?><!DOCTYPE svg PUBLIC "-//W3C//DTD SVG 1.1//EN" "http://www.w3.org/Graphics/SVG/1.1/DTD/svg11.dtd"><svg t="1595996319972" class="icon" viewBox="0 0 1024 1024" version="1.1" xmlns="http://www.w3.org/2000/svg" p-id="2906" width="128" height="128" xmlns:xlink="http://www.w3.org/1999/xlink"><defs><style type="text/css"></style></defs><path d="M493.216898 1023.951042c-172.023775 0-282.482494-129.497808-287.122272-135.001545-174.23167-217.557598-2.71987-449.066529-0.959954-451.370419C234.701258 391.341289 480.41751 14.84729 480.41751 14.84729a32.734435 32.734435 0 0 1 53.501442-1.88791c36.286265 47.90171 268.75515 412.076298 278.642677 427.563557 67.612767 103.803037 77.692285 170.903829 79.100218 185.431135 31.134511 170.103867-114.522524 296.305833-120.762226 301.58558-94.491482 91.419629-232.276894 96.123404-258.931619 96.123404l-5.311747-0.095995a178.903446 178.903446 0 0 1-13.439357 0.383981z m15.359266-932.627408a168319.088244 168319.088244 0 0 0-249.876053 383.661656c-7.263653 9.855529-143.609134 195.734641-1.983905 372.526188 0.479977 0.543974 100.635188 118.138352 249.524069 110.746705l5.695728 0.031999c22.238937 0 137.049447-3.839816 215.029719-79.164215 2.71987-2.399885 125.338007-109.466766 100.059216-242.644399a33.118417 33.118417 0 0 1-0.511976-3.935812c-0.031998-0.255988-5.727726-59.453157-68.988701-156.568514-68.412729-107.226873-191.606839-299.057701-248.948097-384.653608z" p-id="2907" fill="#707070"></path></svg>