<?xml version="1.0" standalone="no"?><!DOCTYPE svg PUBLIC "-//W3C//DTD SVG 1.1//EN" "http://www.w3.org/Graphics/SVG/1.1/DTD/svg11.dtd"><svg class="icon" width="200px" height="200.00px" viewBox="0 0 1024 1024" version="1.1" xmlns="http://www.w3.org/2000/svg"><path fill="#8a8a8a" d="M381.952 454.144c13.824 0 27.136-7.68 34.304-19.456H512l93.696 93.696h57.344c7.168 11.264 19.456 17.408 32.768 16.896 22.528 0 39.936-16.896 39.936-39.936 0-22.528-16.896-39.936-39.936-39.936-13.824 0-27.136 7.68-34.304 19.456h-37.376L546.816 409.6l-18.432-18.432H414.208c-7.168-11.264-19.456-16.896-31.744-16.896-22.528 0-39.936 16.896-39.936 39.936-0.512 22.016 17.408 39.936 39.424 39.936z m-26.624 154.624c13.824 0 26.624-7.168 33.28-18.944h64.512c7.168 12.288 19.456 18.944 33.28 18.944 22.528 0 39.936-16.896 39.936-39.936s-16.896-39.936-39.936-39.936c-13.312 0-26.112 7.168-32.768 17.408h-65.024c-7.168-11.776-19.456-17.408-32.768-17.408-22.528 0-39.936 16.896-39.936 39.936-0.512 23.04 17.408 39.936 39.424 39.936z"  /><path fill="#8a8a8a" d="M512 234.496c141.312 0 255.488 114.688 255.488 255.488 0 88.064-44.032 168.96-118.784 215.552l-24.064 15.36v109.568H398.336V721.408l-24.064-15.36C300.544 658.432 256 578.048 256 489.984c0.512-140.8 114.688-255.488 256-255.488m0-51.712c-169.984 0-307.2 137.216-307.2 307.2 0 108.544 56.832 204.8 142.336 259.072v109.056c0 13.312 11.264 23.552 23.552 23.552h282.624c13.312 0 23.552-11.264 23.552-23.552V749.056c85.504-54.784 142.848-150.016 142.848-259.072-0.512-169.472-137.728-307.2-307.712-307.2z m137.216 806.4H374.784c-14.336 0-26.112-11.776-26.112-26.112s11.776-26.112 26.112-26.112H650.24c14.336 0 26.112 11.776 26.112 26.112-1.024 14.336-12.8 26.112-27.136 26.112zM512.512 137.216c-14.336 0-26.112-11.776-26.112-26.112V60.416c0-14.336 11.776-26.112 26.112-26.112s26.112 11.776 26.112 26.112v50.688c0 14.848-11.776 26.112-26.112 26.112zM235.008 243.712c-7.168 0-13.312-2.048-18.432-7.68l-35.84-35.328c-10.24-10.24-10.24-26.624 0-36.864s26.624-10.24 36.864 0l35.84 35.84a25.958 25.958 0 0 1 0 36.864c-5.12 5.12-11.264 7.168-18.432 7.168z m-107.52 273.92H76.8c-14.336 0-26.112-11.776-26.112-26.112s11.776-26.112 26.112-26.112h50.688c14.336 0 26.112 11.776 26.112 26.112 0 14.848-11.776 26.112-26.112 26.112z m661.504-273.92c-7.168 0-13.312-2.048-18.432-7.68a25.958 25.958 0 0 1 0-36.864l35.84-35.84c10.24-10.24 26.624-10.24 36.864 0s10.24 26.624 0 36.864l-35.84 35.84c-5.12 5.632-11.776 7.68-18.432 7.68zM947.2 517.632h-50.688c-14.336 0-26.112-11.776-26.112-26.112s11.776-26.112 26.112-26.112H947.2c14.336 0 26.112 11.776 26.112 26.112 0 14.848-11.776 26.112-26.112 26.112z"  /></svg>