<?xml version="1.0" standalone="no"?>
<!DOCTYPE svg PUBLIC "-//W3C//DTD SVG 1.1//EN" "http://www.w3.org/Graphics/SVG/1.1/DTD/svg11.dtd">
<svg class="icon" width="200" height="200.px" viewBox="-500 -500 2048 2048" version="1.1" xmlns="http://www.w3.org/2000/svg">
<circle cx="500" cy="530" r="800" fill="LightSkyBlue"></circle>
<path fill="#ffffff" d="M522.24 777.28A375.04 375.04 0 0 0 836.8 599.04a485.44 485.44 0 0 0 33.6-384 69.12 69.12 0 0 0-91.52-45.44l-108.8 42.24a788.8 788.8 0 0 0-133.76-160 47.04 47.04 0 0 0-54.72 0 788.8 788.8 0 0 0-134.72 160l-108.16-42.88a69.12 69.12 0 0 0-92.48 45.44 485.44 485.44 0 0 0 33.6 384A373.44 373.44 0 0 0 508.8 776.64zM760.96 979.2a120.96 120.96 0 0 0 32-5.76c41.28-8.32 113.6-48 125.44-211.2a25.28 25.28 0 0 0-5.76-18.56 16 16 0 0 0-13.44-5.76c-55.36 0-211.2 22.72-252.48 91.52a77.44 77.44 0 0 0 0 80 135.36 135.36 0 0 0 114.24 69.76zM125.12 741.12a17.6 17.6 0 0 0-12.48 8.32 25.28 25.28 0 0 0-5.76 18.56c11.84 163.2 83.2 202.56 125.44 211.2a120.32 120.32 0 0 0 25.28 0 135.36 135.36 0 0 0 120.32-66.56 77.44 77.44 0 0 0 0-80c-45.12-68.8-200.64-91.52-252.8-91.52z" />
</svg>