<?xml version="1.0" standalone="no"?><!DOCTYPE svg PUBLIC "-//W3C//DTD SVG 1.1//EN" "http://www.w3.org/Graphics/SVG/1.1/DTD/svg11.dtd"><svg class="icon" width="200px" height="200.00px" viewBox="0 0 1024 1024" version="1.1" xmlns="http://www.w3.org/2000/svg"><path fill="#8a8a8a" d="M667.262625 580.112536c86.147637-52.515831 143.86538-147.07142 143.86538-255.345246 0-165.269081-133.940204-299.16413-299.164129-299.164129S212.826839 159.552396 212.826839 324.76729c0 108.273826 57.726774 202.838446 143.874412 255.345246-150.060713 61.31212-256.094827 208.618348-256.076765 380.89556 0 20.645088 16.734623 36.901064 37.379712 36.901064s37.388743-17.249396 37.388743-37.930609c0-185.029122 150.981885-335.559452 336.588997-335.559452 185.272961 0 336.074224 150.006526 336.607059 334.593125 0 0.695394-0.054187 1.39982-0.054187 1.968779a37.397774 37.397774 0 0 0 74.750393 1.733971c0.054187-0.90311 0.08128-1.950717 0.08128-2.70933 0-171.473445-106.025082-318.653238-256.103858-379.902139zM287.613356 324.76729c0-123.726033 100.65158-224.368582 224.368582-224.368581s224.368582 100.65158 224.368581 224.368581S635.69894 549.135872 511.981938 549.135872 287.613356 448.493324 287.613356 324.76729z m0 0" /></svg>