<?xml version="1.0" standalone="no"?><!DOCTYPE svg PUBLIC "-//W3C//DTD SVG 1.1//EN" "http://www.w3.org/Graphics/SVG/1.1/DTD/svg11.dtd"><svg t="1595057288116" class="icon" viewBox="0 0 1024 1024" version="1.1" xmlns="http://www.w3.org/2000/svg" p-id="17385" xmlns:xlink="http://www.w3.org/1999/xlink" width="200" height="200"><defs><style type="text/css"></style></defs><path d="M995.674908 493.400433c15.35744 0 28.155307 13.736377 28.155307 29.264456 0 16.295951-12.797867 29.264456-28.155307 29.264456H29.009352A29.520413 29.520413 0 0 1 0.000853 522.664889c0-15.44276 13.651058-29.264456 29.008499-29.264456h966.665556zM280.018184 801.999667c-14.760207 0-23.889352-9.214464-23.889352-24.05999 0-14.674888 15.698717-24.145309 23.889352-24.145309h262.100316c14.760207 0 23.889352 9.299783 23.889352 24.145309s-9.129145 24.05999-23.889352 24.05999H280.018184z m464.477254-130.708882H280.018184c-14.760207 0-23.974671-9.214464-23.974671-24.05999 0-14.674888 15.784036-24.145309 23.974671-24.145309h464.477254c14.760207 0 23.889352 9.299783 23.889351 24.145309s-9.129145 24.05999-23.889351 24.05999z m0-299.470088c14.760207 0 23.889352 9.214464 23.889351 24.05999s-9.129145 24.145309-23.889351 24.145309H280.018184c-14.760207 0-23.974671-9.299783-23.974671-24.145309 0-14.674888 15.784036-24.05999 23.974671-24.05999h464.477254z m0-154.768872c14.760207 0 23.889352 9.214464 23.889351 24.05999s-9.129145 24.145309-23.889351 24.145309H280.018184c-14.760207 0-23.974671-9.299783-23.974671-24.145309 0-14.674888 15.784036-24.05999 23.974671-24.05999h464.477254z m-634.944843-51.106149V424.035994h-54.604233V165.945676C54.946362 74.824863 128.3208 0 219.612251 0h585.374438c90.43826 0 164.665889 74.824863 164.665889 165.945676V424.035994h-54.604233V165.945676c0-61.003166-49.485086-110.061656-110.061656-110.061657H219.612251c-60.576571 0-110.061656 48.973171-110.061656 110.061657z m805.412431 691.93801V621.293784h54.604233v236.675221c0 91.974004-74.227629 165.945676-164.665889 165.945676H219.526932c-91.291451 0-164.665889-73.886352-164.665889-165.945676V621.293784h54.604233v236.675221c0 61.003166 49.485086 110.914848 110.061656 110.914848h585.374438a110.914848 110.914848 0 0 0 110.061656-111.000167z" fill="#409EFF" p-id="17386"></path></svg>