<?xml version="1.0" standalone="no"?><!DOCTYPE svg PUBLIC "-//W3C//DTD SVG 1.1//EN" "http://www.w3.org/Graphics/SVG/1.1/DTD/svg11.dtd"><svg t="1595996459562" class="icon" viewBox="0 0 1024 1024" version="1.1" xmlns="http://www.w3.org/2000/svg" p-id="4005" xmlns:xlink="http://www.w3.org/1999/xlink" width="128" height="128"><defs><style type="text/css"></style></defs><path d="M331.454 727.626C367.176 698.256 390 653.746 390 604c0-88.224-71.776-160-160-160s-160 71.776-160 160c0 49.746 22.824 94.256 58.546 123.624C52.464 765.178 0 843.572 0 934v60c0 16.568 13.432 30 30 30h400c16.568 0 30-13.432 30-30v-60c0-90.428-52.464-168.82-128.546-206.374zM230 504c55.14 0 100 44.86 100 100s-44.86 100-100 100-100-44.86-100-100 44.86-100 100-100z m170 460H60v-30c0-93.738 76.262-170 170-170s170 76.262 170 170zM895.454 283.624C931.176 254.256 954 209.746 954 160c0-88.224-71.776-160-160-160s-160 71.776-160 160c0 49.746 22.824 94.256 58.546 123.624C616.464 321.178 564 399.572 564 490v60c0 16.568 13.432 30 30 30h400c16.568 0 30-13.432 30-30v-60c0-90.428-52.464-168.822-128.546-206.376zM694 160c0-55.14 44.86-100 100-100s100 44.86 100 100-44.86 100-100 100-100-44.86-100-100z m270 360H624v-30c0-93.738 76.262-170 170-170s170 76.262 170 170zM815.212 652.788c-11.714-11.716-30.71-11.716-42.426 0l-80 80c-11.716 11.716-11.716 30.71 0 42.426C698.644 781.072 706.322 784 714 784s15.356-2.928 21.212-8.788L764 746.426V834c0 27.57-22.43 50-50 50h-160c-16.568 0-30 13.432-30 30s13.432 30 30 30h160c60.654 0 110-49.346 110-110v-87.574l28.788 28.788C858.644 781.072 866.322 784 874 784s15.356-2.928 21.212-8.788c11.716-11.716 11.716-30.71 0-42.426zM470 80h-160c-60.654 0-110 49.346-110 110v87.574l-28.788-28.788c-11.714-11.716-30.71-11.716-42.426 0s-11.716 30.71 0 42.426l80 80c5.858 5.86 13.536 8.788 21.214 8.788s15.356-2.928 21.212-8.788l80-80c11.716-11.716 11.716-30.71 0-42.426-11.714-11.716-30.71-11.716-42.426 0L260 277.574V190c0-27.57 22.43-50 50-50h160c16.568 0 30-13.432 30-30s-13.432-30-30-30z" p-id="4006" fill="#707070"></path></svg>