<?xml version="1.0" standalone="no"?><!DOCTYPE svg PUBLIC "-//W3C//DTD SVG 1.1//EN" "http://www.w3.org/Graphics/SVG/1.1/DTD/svg11.dtd"><svg class="icon" width="200px" height="200.00px" viewBox="0 0 1024 1024" version="1.1" xmlns="http://www.w3.org/2000/svg"><path fill="#8a8a8a" d="M512 902c-52.637 0-103.714-10.315-151.815-30.66-46.444-19.645-88.149-47.761-123.957-83.568-35.808-35.808-63.924-77.513-83.568-123.957C132.315 615.714 122 564.637 122 512s10.315-103.714 30.66-151.815c19.645-46.444 47.761-88.149 83.568-123.957 35.807-35.808 77.512-63.924 123.957-83.568C408.286 132.315 459.363 122 512 122s103.714 10.315 151.814 30.66c46.444 19.645 88.149 47.761 123.957 83.568 35.808 35.807 63.924 77.512 83.568 123.957C891.685 408.286 902 459.363 902 512s-10.315 103.714-30.66 151.814c-19.645 46.444-47.761 88.149-83.568 123.957s-77.513 63.924-123.957 83.568C615.714 891.685 564.637 902 512 902z m0-720c-181.963 0-330 148.037-330 330s148.037 330 330 330 330-148.037 330-330-148.037-330-330-330z"  /><path fill="#8a8a8a" d="M513.973 735.454c-34.149 0-67.819-8.861-97.371-25.626-28.623-16.238-52.96-39.59-70.383-67.529-8.767-14.06-4.476-32.563 9.583-41.33 14.059-8.768 32.563-4.477 41.33 9.582 25.341 40.641 69.02 64.903 116.84 64.903 47.661 0 91.263-24.14 116.635-64.573 8.806-14.034 27.323-18.272 41.356-9.466 14.034 8.806 18.272 27.322 9.466 41.356-17.449 27.81-41.77 51.045-70.329 67.194-29.49 16.676-63.076 25.489-97.127 25.489zM628.28 506.189c-47.07 0-85.364-38.294-85.364-85.365 0-47.07 38.294-85.364 85.364-85.364s85.365 38.294 85.365 85.364c0.001 47.071-38.294 85.365-85.365 85.365z m0-110.729c-13.986 0-25.364 11.378-25.364 25.364s11.378 25.365 25.364 25.365 25.365-11.378 25.365-25.365c0.001-13.985-11.378-25.364-25.365-25.364zM340.382 503.92c-10.63 0-20.926-5.661-26.37-15.652-7.927-14.549-2.56-32.77 11.989-40.697l50.192-27.349-52.462-35.046c-13.777-9.204-17.485-27.833-8.281-41.61 9.204-13.776 27.834-17.485 41.61-8.281l91.371 61.038c9.17 6.126 14.557 16.775 14.06 27.792-0.498 11.017-6.824 21.136-16.508 26.41l-91.273 49.734a29.903 29.903 0 0 1-14.328 3.661z m74.72-57.707h0.01-0.01z"  /></svg>