<?xml version="1.0" standalone="no"?><!DOCTYPE svg PUBLIC "-//W3C//DTD SVG 1.1//EN" "http://www.w3.org/Graphics/SVG/1.1/DTD/svg11.dtd"><svg t="1595053854638" class="icon" viewBox="0 0 1024 1024" version="1.1" xmlns="http://www.w3.org/2000/svg" p-id="17160" xmlns:xlink="http://www.w3.org/1999/xlink" width="200" height="200"><defs><style type="text/css"></style></defs><path d="M1014.2 238.2c-4.1-4.2-9.2-6.4-15-6.4-14.3-0.2-30.2 12.5-41 23.1L570 632c-14.2 13.9-66.6 99-68.9 102.7l-8.5 13.8 13.8-8.5c3.7-2.2 89.9-55.1 104.1-69l388.2-377.1c17.4-16.9 30.5-40.4 15.5-55.7zM771.9 355.5c0 31.4-25.5 57-57 57-31.4 0-57-25.5-57-57 0-31.4 25.5-57 57-57s57 25.6 57 57z m-598 199.3c-31.4 0-57-25.5-57-57 0-31.4 25.5-57 57-57 31.4 0 57 25.5 57 57-0.1 31.5-25.6 57-57 57z m85.4-199.3c0-31.4 25.5-57 57-57 31.4 0 57 25.5 57 57 0 31.4-25.5 57-57 57s-57-25.5-57-57z m199.4-57c0-31.4 25.5-57 57-57 31.4 0 57 25.5 57 57 0 31.4-25.5 57-57 57s-57-25.5-57-57z m0 0" p-id="17161" fill="#409EFF"></path><path d="M899.2 491.7C873 661.3 718.4 833.3 498.4 833.3c-41.9 0-86.5-8.3-122.5-22.7-38.3-15.4-55.6-33.4-59.1-45.2-1.8-6.1-3.5-12.9-5.3-20-5.3-20.8-11.3-44.5-23.1-64.1-20.9-34.9-51-42.2-72.6-42.2-8.2 0-16.9 1-25.8 3.1-14.6 3.3-28.9 5-42.3 5-28.6 0-76.8-7.6-78.3-58.4C61.9 329.2 275.2 188.2 490 163.7c15.2-1.7 31.4-2.6 48.3-2.6 60.5 0 127 11.4 173.6 29.7 10.5 4.1 16.4 6.8 44.6 20.7 29.2 14.3 52.8 34.7 71.6 54.3l34.3-60.4c-20.5-19.4-45.9-39.2-76.4-54.1-28.3-13.9-36.3-17.7-49.6-22.9C682.5 107.2 606.5 94 538.2 94c-19.4 0-38.2 1-55.9 3C350.7 112 231 164.2 145 243.9 47.7 334.3-1.7 454.2 2.2 590.8c1.1 39.3 17.2 71.8 46.5 94 25.5 19.4 59.7 29.6 99 29.6 18.4 0 37.7-2.3 57.2-6.7 4.1-0.9 7.7-1.4 10.9-1.4 13.1 0 19.4 11.4 30.6 55.6 1.9 7.4 3.8 15.1 6 22.5 10.7 36.3 44.8 66.9 98.5 88.5 43.6 17.5 97.4 27.6 147.5 27.6 61.6 0 121.2-11.5 177.3-34.3 52.7-21.4 100.8-52.1 143-91.3 40.7-37.7 74.3-81.8 99.9-130.8 25.7-49.2 42-101 48.6-154 0.3-2.4 0.6-4.9 0.8-7.5l0.2-1.7v-0.1c0.3-2.7 0.5-5.3 0.6-8l-69.6 18.9z m0 0" p-id="17162" fill="#409EFF"></path></svg>