<?xml version="1.0" standalone="no"?>
<!DOCTYPE svg PUBLIC "-//W3C//DTD SVG 1.1//EN" "http://www.w3.org/Graphics/SVG/1.1/DTD/svg11.dtd">
<svg t="1596273104691" class="icon" viewBox="-600 -600 2300 2300" version="1.1" xmlns="http://www.w3.org/2000/svg" p-id="4176" xmlns:xlink="http://www.w3.org/1999/xlink" width="200" height="200">
<defs>
<style type="text/css">
</style>
</defs>
<circle cx="500" cy="550" r="900" fill="LightSkyBlue"></circle>
<path d="M208.852 302.584a302.584 302.584 0 1 0 605.168 0 302.584 302.584 0 1 0-605.168 0z" fill="#ffffff" p-id="4177"></path><path d="M803.763 603.46c-23.933-18.806-58.123-17.096-80.347 5.128-54.705 54.704-129.923 88.894-213.69 88.894s-158.985-34.19-213.69-88.894c-22.223-22.224-56.413-25.643-80.346-5.129-92.314 78.638-160.695 179.5-182.918 317.97C24.224 977.843 63.542 1024 121.666 1024h781.25c56.413 0 97.441-46.157 88.894-102.571-23.933-138.47-92.314-239.332-188.047-317.97z" fill="#ffffff" p-id="4178"></path>
</svg>